<svg xmlns="http://www.w3.org/2000/svg" xmlns:xlink="http://www.w3.org/1999/xlink" width="18" height="24" viewBox="0 0 18 24">
  <defs>
    <style>
      .cls-1 {
        fill-rule: evenodd;
        filter: url(#filter);
      }
    </style>
    <filter id="filter" x="1434" y="53" width="18" height="24" filterUnits="userSpaceOnUse">
      <feFlood result="flood" flood-color="#fff"/>
      <feComposite result="composite" operator="in" in2="SourceGraphic"/>
      <feBlend result="blend" in2="SourceGraphic"/>
    </filter>
  </defs>
  <path id="icon-cart" class="cls-1" d="M1449,56h-1.5c0-1.657-2.02-3-4.5-3s-4.5,1.344-4.5,3H1437a3,3,0,0,0-3,3v15a3,3,0,0,0,3,3h12a3,3,0,0,0,2.99-3V59A3,3,0,0,0,1449,56Zm-6-1.5c1.65,0,3,.464,3,1.5h-6C1440,54.962,1441.34,54.5,1443,54.5Zm7.49,19.5a1.5,1.5,0,0,1-1.49,1.5h-12a1.5,1.5,0,0,1-1.5-1.5V72.5h14.99v1.5Zm0-3H1435.5V59a1.5,1.5,0,0,1,1.5-1.5h1.5V62h1.5V57.5h6V62h1.5V57.5h1.5a1.5,1.5,0,0,1,1.49,1.5v12Z" transform="translate(-1434 -53)"/>
</svg>
