<svg id="Layer" xmlns="http://www.w3.org/2000/svg" width="28" height="35" viewBox="0 0 591.562 792">
  <defs>
    <style>
      .cls-1 {
        fill: #c7b299;
        fill-rule: evenodd;
      }
    </style>
  </defs>
  <path id="Layer-2" data-name="Layer" class="cls-1" d="M680.05,680.713c-2.471-3.933-13.62-21.146-37.274-57.56-19.2-29.663-34.371-53.093-37.341-57.538-8.865-13.492-18.1-25.6-33.536-25.6-6.921,0-14.29,2.4-22.98,7.433-1.708.924-4.488,2.547-8.133,4.683l-3.5,2.047c-5.721.763-11.9,3.089-18.738,7.029-1.958,1.1-5.34,3.085-9.887,5.759-3.22,1.895-7.038,4.145-11.348,6.657-5.577,3.251-10.26,5.988-13.912,8.146-69.314-67.771-185.954-245.3-215.82-342.1l20.743-12.191c9.225-5.39,15.946-9.327,18.87-11.115a59.954,59.954,0,0,0,11.318-8.454c6.971-4.085,12.2-7.153,14.667-8.674,11.505-6.891,17.793-14.031,19.79-22.464,2.792-11.8-3.7-23.366-11.217-35.193-2.852-4.454-17.641-27.307-37.485-57.877-19.429-30.057-34.528-53.338-37.562-57.907C257.757,12.2,248.443,0,232.934,0c-6.92,0-14.276,2.386-23.095,7.479-2.03,1.148-5.708,3.31-10.573,6.187-5.475.886-11.34,3.166-17.768,6.878-2.471,1.369-7.25,4.183-13.751,8.018l-7.513,4.428c-11.721,6.843-18.272,10.712-21.12,12.475-6.314,3.759-10.9,7.5-14.179,11.573a16.453,16.453,0,0,0-2.916,1.453c-15.408,9.818-37.914,75-4.437,204.718C153.254,401.579,255.6,598.919,396.021,705.2,474.205,764.413,547.048,792,571.661,792c4.444,0,7.9-.813,10.229-2.293,0.385-.22.763-0.453,1.127-0.707,5.712-.759,11.938-3.11,18.87-7.115,3.335-1.882,10.882-6.318,21.213-12.4,4.038-2.382,7.649-4.492,10.742-6.3,4.9-2.869,8.53-4.992,10.446-6.179a54.15,54.15,0,0,0,13.78-11.094l0.067-.038c6.251-3.67,10.946-6.429,13.162-7.81,11.53-6.895,17.832-14.035,19.832-22.46C693.911,703.875,687.465,692.392,680.05,680.713Zm-5.416,30.98q-1.272,5.371-12.162,11.9c-2.279,1.42-6.844,4.1-12.92,7.666l-1.411.826a8.4,8.4,0,0,0-2.475,2.208q-2.924,3.871-10.2,8.238c-1.954,1.212-5.454,3.258-10.179,6.017-3.106,1.818-6.738,3.941-10.8,6.331-10.188,6-17.628,10.382-21.006,12.28-5.763,3.331-10.534,5.064-14.175,5.153a8.478,8.478,0,0,0-5.949,2.636,12.25,12.25,0,0,1-1.7.1c-19.3,0-87.625-24.455-165.41-83.366C269.072,587.85,168.959,394.6,134,258.975,103.069,139.141,122.837,79.06,130.957,72.89a8.484,8.484,0,0,0,6.242-3.911q2.656-4.227,10.7-9.026c2.848-1.758,9.289-5.56,20.908-12.348l7.551-4.445c6.318-3.725,10.958-6.462,13.493-7.865,5.148-2.975,9.564-4.67,13.124-5.034a8.417,8.417,0,0,0,3.45-1.14c5.475-3.237,9.6-5.666,11.839-6.933,6.022-3.475,10.958-5.238,14.675-5.238,5.793,0,10.556,4.412,19.625,18.192,2.97,4.475,18.378,28.227,37.477,57.775,19.828,30.54,34.591,53.364,37.422,57.779,6.42,10.1,10.162,17.328,9.018,22.167-0.852,3.585-4.89,7.564-12.085,11.878-2.61,1.6-8.1,4.818-15.4,9.1a8.588,8.588,0,0,0-1.818,1.432,42.437,42.437,0,0,1-8.751,6.585c-2.949,1.805-9.573,5.678-18.654,10.988l-23.09,13.582-1.2.627c-0.729.373-1.437,0.737-2.144,1.145a8.473,8.473,0,0,0-3.954,9.624C277.605,339.261,403.236,530.117,476.4,598.533a8.481,8.481,0,0,0,10.133,1.089c3.775-2.25,10.373-6.14,19.318-11.348,4.34-2.534,8.179-4.793,11.412-6.7,4.395-2.58,7.662-4.5,9.653-5.623,5.42-3.123,10-4.835,13.624-5.068a8.434,8.434,0,0,0,3.708-1.14l5.114-2.992c3.42-2,6.018-3.529,7.836-4.513,6.047-3.5,10.992-5.271,14.7-5.271,5.733,0,10.438,4.36,19.4,18.014,2.938,4.395,18.078,27.782,37.253,57.4,16.658,25.642,34.1,52.512,37.164,57.39C672.066,699.756,675.77,706.909,674.634,711.693Z" transform="translate(-100.219)"/>
  <path id="Layer-3" data-name="Layer" class="cls-1" d="M161.832,85.019a8.475,8.475,0,0,0-16.857-1.772c-0.635,6.073-14.993,149.968,42.469,258.688a8.478,8.478,0,0,0,14.993-7.92C147.415,229.931,161.679,86.455,161.832,85.019Z" transform="translate(-100.219)"/>
  <path id="Layer-4" data-name="Layer" class="cls-1" d="M569.313,729.746C439.821,697,295.332,516.069,293.887,514.248a8.477,8.477,0,0,0-13.294,10.521A1042.357,1042.357,0,0,0,371.222,622.2c71.759,67.873,137.005,109.584,193.937,123.983a8.631,8.631,0,0,0,2.085.258A8.477,8.477,0,0,0,569.313,729.746Z" transform="translate(-100.219)"/>
</svg>
