<svg xmlns="http://www.w3.org/2000/svg" width="30" height="25" viewBox="0 0 612 464.062">
  <defs>
    <style>
      .cls-1 {
        fill: #c7b299;
        fill-rule: evenodd;
      }
    </style>
  </defs>
  <path id="Layer" class="cls-1" d="M564.886,538.032H47.094A47.157,47.157,0,0,1,0,490.917V222.106a10.109,10.109,0,0,1,15.179-8.747l2.275,1.264L274.312,361.4a64.816,64.816,0,0,0,63.4,0l259.1-148.037A10.109,10.109,0,0,1,612,222.106V490.917A47.168,47.168,0,0,1,564.886,538.032ZM20.225,239.5V490.917A26.9,26.9,0,0,0,47.094,517.8H564.886a26.905,26.905,0,0,0,26.879-26.879V239.5L347.739,378.952a85.379,85.379,0,0,1-83.479,0ZM306,353.073a47,47,0,0,1-23.36-6.229L25.292,199.788A46.723,46.723,0,0,1,0,158.053V121.072a47.154,47.154,0,0,1,47.094-47.1H564.886a47.163,47.163,0,0,1,47.1,47.1v36.981a46.916,46.916,0,0,1-25.7,41.957L329.354,346.845A46.976,46.976,0,0,1,306,353.073ZM47.094,94.193a26.9,26.9,0,0,0-26.869,26.879v36.981A26.8,26.8,0,0,0,34.908,182L292.677,329.278a27.188,27.188,0,0,0,26.637.01L576.677,182.222a27,27,0,0,0,15.088-24.179V121.072a26.9,26.9,0,0,0-26.879-26.879H47.094Z" transform="translate(0 -73.969)"/>
</svg>
