<svg id="Layer" xmlns="http://www.w3.org/2000/svg" width="26" height="26" viewBox="0 0 612 622.438">
  <defs>
    <style>
      .cls-1 {
        fill: #c7b299;
        fill-rule: evenodd;
      }
    </style>
  </defs>
  <path id="Layer-2" data-name="Layer" class="cls-1" d="M312.461,430.406c-95.338,0-172.908-77.564-172.908-172.908V172.913C139.559,77.57,217.124,0,312.461,0S485.38,77.57,485.38,172.913v84.58C485.38,352.836,407.81,430.406,312.461,430.406Zm0-403c-80.233,0-145.505,65.277-145.505,145.511v84.58C166.956,337.726,232.228,403,312.461,403s145.517-65.277,145.517-145.5v-84.58C457.978,92.68,392.7,27.4,312.461,27.4Z" transform="translate(-5.219)"/>
  <path id="Layer-3" data-name="Layer" class="cls-1" d="M543.812,622.439H78.616a73.487,73.487,0,0,1-73.4-73.41V484.58c0-23.994,12.068-56.109,69.569-72.863L144.4,392.465a13.7,13.7,0,1,1,7.305,26.41l-69.432,19.2c-49.652,14.469-49.652,38.582-49.652,46.5v64.449a46.056,46.056,0,0,0,46,46.01h465.2a46.061,46.061,0,0,0,46-46.01V484.58c0-21.379-16.754-37.043-49.789-46.539l-66.21-18.5a13.7,13.7,0,1,1,7.377-26.393l66.313,18.528c57.638,16.572,69.717,48.791,69.717,72.9v64.449A73.5,73.5,0,0,1,543.812,622.439Z" transform="translate(-5.219)"/>
</svg>
