<svg xmlns="http://www.w3.org/2000/svg" xmlns:xlink="http://www.w3.org/1999/xlink" width="63.031" height="55.125" viewBox="0 0 63.031 55.125">
  <defs>
    <style>
      .cls-1 {
        fill-rule: evenodd;
        filter: url(#filter);
      }
    </style>
    <filter id="filter" x="334.344" y="38" width="63.031" height="55.125" filterUnits="userSpaceOnUse">
      <feFlood result="flood" flood-color="#fff"/>
      <feComposite result="composite" operator="in" in2="SourceGraphic"/>
      <feBlend result="blend" in2="SourceGraphic"/>
    </filter>
  </defs>
  <path id="logos" class="cls-1" d="M371.108,48.713H360.6l5.254,9.191Zm-11.822.766-5.254,9.192H364.54Zm18.39,9.192-5.254-9.192-5.254,9.192h10.508ZM367.168,60.2l5.254,9.188,5.254-9.188H367.168Zm-13.136,0,5.254,9.188L364.54,60.2H354.032Zm-6.567,9.952h10.506l-5.253-9.187Zm36.778,0-5.253-9.187-5.252,9.187h10.5ZM365.854,37.993L360.6,47.184h10.508ZM378.99,80.874l5.253-9.188h-10.5Zm-26.272,0,5.253-9.188H347.465Zm-11.821.768H351.4l-5.253-9.191Zm49.914,0-5.254-9.191L380.3,81.641h10.508ZM380.3,83.172l5.254,9.187,5.254-9.187H380.3Zm-13.135,0,5.254,9.187,5.254-9.187H367.168Zm-21.017,9.187,5.253-9.187H340.9Zm-11.82.769h10.5l-5.254-9.189Zm26.269,0h10.508l-5.254-9.189Zm13.138,0h10.5l-5.253-9.189Zm18.387-9.189-5.252,9.189h10.5Z" transform="translate(-334.344 -38)"/>
</svg>
