<svg xmlns="http://www.w3.org/2000/svg" xmlns:xlink="http://www.w3.org/1999/xlink" width="24.625" height="24.62" viewBox="0 0 24.625 24.62">
  <defs>
    <style>
      .cls-1 {
        fill-rule: evenodd;
        filter: url(#filter);
      }
    </style>
    <filter id="filter" x="920.688" y="1759.72" width="24.625" height="24.62" filterUnits="userSpaceOnUse">
      <feFlood result="flood" flood-color="#c7b299"/>
      <feComposite result="composite" operator="in" in2="SourceGraphic"/>
      <feBlend result="blend" in2="SourceGraphic"/>
    </filter>
  </defs>
  <path id="link" class="cls-1" d="M943.5,1761.49a6.21,6.21,0,0,0-8.744,0l-4.721,4.73a7.106,7.106,0,0,1,4.909.37l2.454-2.45a2.447,2.447,0,1,1,3.46,3.46l-3.085,3.09-2.028,2.02a2.438,2.438,0,0,1-3.46,0l-2.642,2.65a6.077,6.077,0,0,0,2.08,1.36,6.237,6.237,0,0,0,6.153-.9,4.781,4.781,0,0,0,.511-0.46l3.187-3.19,1.926-1.93A6.18,6.18,0,0,0,943.5,1761.49Zm-12.561,16.03-2.352,2.36a2.447,2.447,0,0,1-3.46-3.46l5.113-5.12a2.438,2.438,0,0,1,3.46,0l2.642-2.64a5.964,5.964,0,0,0-2.08-1.37,6.2,6.2,0,0,0-6.425,1.14,3.111,3.111,0,0,0-.239.23l-5.113,5.11a6.185,6.185,0,0,0,8.743,8.75l4.619-4.67C933.494,1778.39,932.949,1778.33,930.938,1777.52Z" transform="translate(-920.688 -1759.72)"/>
</svg>
