<svg xmlns="http://www.w3.org/2000/svg" xmlns:xlink="http://www.w3.org/1999/xlink" width="21.969" height="21.97" viewBox="0 0 21.969 21.97">
  <defs>
    <style>
      .cls-1 {
        fill-rule: evenodd;
        filter: url(#filter);
      }
    </style>
    <filter id="filter" x="921" y="3830.03" width="21.969" height="21.97" filterUnits="userSpaceOnUse">
      <feFlood result="flood" flood-color="#c7b299"/>
      <feComposite result="composite" operator="in" in2="SourceGraphic"/>
      <feBlend result="blend" in2="SourceGraphic"/>
    </filter>
  </defs>
  <path id="left" class="cls-1" d="M928.583,3840.43l4.772-4.77a0.735,0.735,0,0,1,1.04,1.04l-4.254,4.26,4.254,4.25a0.735,0.735,0,0,1-1.04,1.04l-4.772-4.77a0.749,0.749,0,0,1-.216-0.52A0.759,0.759,0,0,1,928.583,3840.43Zm3.4-10.4A10.98,10.98,0,1,1,921,3841.01,10.979,10.979,0,0,1,931.987,3830.03Zm0,20.49a9.51,9.51,0,1,0-9.512-9.51A9.526,9.526,0,0,0,931.987,3850.52Z" transform="translate(-921 -3830.03)"/>
</svg>
